#!OML:ASF Y:\EmotionMaleHayes\Project 1\Capture day 1\Session 1\Male1.ASF
:FULLY-SPECIFIED
:DEGREES
190
root -28.0719 16.9939 -0.0383033 22.5497 87.357 17.6716
lowerback 5.90284 2.8281 -1.37158
upperback 1.26762 3.69768 -0.152698
thorax -2.07437 1.85944 0.327813
lowerneck -26.348 0.0211521 1.33936
upperneck 27.5912 0.262838 -1.70882
head 13.7777 0.0925288 -0.837607
rclavicle 1.11319e-014 -5.56597e-015
rhumerus -25.6215 12.2699 -92.2159
rradius 29.4784
rwrist 2.01154
rhand -12.1229 -29.8869
rfingers 7.12502
rthumb 13.9386 -59.3997
lclavicle 1.11319e-014 -5.56597e-015
lhumerus -35.2473 -20.6732 96.0161
lradius 34.1954
lwrist 4.16595
lhand -22.9629 -22.1271
lfingers 7.12502
lthumb 3.47889 7.82422
rfemur 4.79014 -2.64874 12.8098
rtibia 9.11416
rfoot -24.6804 -4.05876
rtoes -7.50966
lfemur 3.39447 -3.36245 -18.7333
ltibia 10.1612
lfoot -22.6582 7.72633
ltoes -8.33881
191
root -28.035 16.9919 -0.0648819 27.6909 87.213 22.6888
lowerback 6.00395 2.91789 -1.53584
upperback 1.39569 3.80872 -0.143422
thorax -2.01197 1.91577 0.418523
lowerneck -26.3614 -0.0194341 1.39229
upperneck 27.4169 0.281659 -2.03218
head 13.7077 0.0558702 -0.971225
rclavicle -5.8716e-014 1.98785e-016
rhumerus -24.6207 13.1831 -92.2386
rradius 30.4122
rwrist 1.09721
rhand -12.3549 -30.1982
rfingers 7.12502
rthumb 13.7149 -59.7262
lclavicle -5.8716e-014 1.98785e-016
lhumerus -35.5347 -20.4007 96.0413
lradius 35.009
lwrist 5.10459
lhand -23.4337 -21.9354
lfingers 7.12502
lthumb 3.02423 8.02292
rfemur 4.88111 -2.72371 12.3465
rtibia 8.98831
rfoot -24.7063 -4.12177
rtoes -8.37143
lfemur 3.17068 -2.94402 -19.1208
ltibia 10.5734
lfoot -22.814 7.68387
ltoes -8.72713
192
root -28.014 16.9852 -0.0853556 27.9652 87.4111 22.728
lowerback 6.18906 2.90528 -1.36496
upperback 1.48583 3.80377 -0.0522586
thorax -2.01728 1.91295 0.410168
lowerneck -26.655 -0.100456 0.743866
upperneck 27.5101 0.238342 -1.42547
head 13.8047 0.0543144 -0.629905
rclavicle 7.25564e-015 -1.15295e-014
rhumerus -23.5381 14.107 -92.26
rradius 31.2846
rwrist 0.155499
rhand -13.3896 -29.5368
rfingers 7.12502
rthumb 12.7176 -59.1295
lclavicle 7.25564e-015 -1.15295e-014
lhumerus -35.9083 -20.3632 96.0529
lradius 36.029
lwrist 6.26421
lhand -23.4075 -22.4713
lfingers 7.12502
lthumb 3.04955 7.48662
rfemur 4.805 -2.53127 12.5046
rtibia 8.88628
rfoot -24.8392 -4.53948
rtoes -8.92346
lfemur 2.79704 -2.95345 -19.0808
ltibia 10.9832
lfoot -23.0332 7.59007
ltoes -8.3609
193
root -28.023 16.9666 -0.0890074 29.7687 88.2074 24.0557
lowerback 6.50816 2.71572 -1.0981
upperback 1.44694 3.56737 0.0807676
thorax -2.22281 1.79473 0.399461
lowerneck -26.6623 -0.113936 0.810149
upperneck 27.295 0.179263 -1.42755
head 13.7141 0.0323797 -0.652515
rclavicle -6.06293e-015 -2.78299e-015
rhumerus -22.4106 15.0162 -92.3224
rradius 32.2826
rwrist -0.99169
rhand -14.9519 -28.3825
rfingers 7.12502
rthumb 11.2111 -58.0629
lclavicle -6.06293e-015 -2.78299e-015
lhumerus -36.2891 -20.6488 96.0675
lradius 37.0028
lwrist 7.53367
lhand -24.9963 -22.5767
lfingers 7.12502
lthumb 1.51511 7.39771
rfemur 4.47247 -2.14499 13.1644
rtibia 8.75549
rfoot -25.0175 -5.64814
rtoes -9.60442
lfemur 1.63796 -3.05582 -18.5568
ltibia 12.0067
lfoot -23.1947 7.03695
ltoes -7.96353
194
root -27.9786 16.9625 -0.105152 44.7957 88.7583 39.1012
lowerback 6.75266 2.55429 -1.07801
upperback 1.65185 3.35928 0.182915
thorax -2.14915 1.69225 0.505028
lowerneck -26.779 -0.172139 0.880725
upperneck 27.2283 0.114134 -1.59367
head 13.7086 -0.0149014 -0.743626
rclavicle -1.71949e-014 6.75868e-015
rhumerus -21.3568 15.9887 -92.2799
rradius 33.454
rwrist -2.07688
rhand -15.9043 -27.9665
rfingers 7.12502
rthumb 10.2925 -57.6946
lclavicle -1.71949e-014 6.75868e-015
lhumerus -36.7164 -20.6873 96.1414
lradius 37.9081
lwrist 8.47621
lhand -24.1577 -22.2559
lfingers 7.12502
lthumb 2.32507 7.7112
rfemur 5.08311 -2.42874 13.0712
rtibia 8.25961
rfoot -25.0385 -6.09049
rtoes -10.0587
lfemur 1.45102 -2.97979 -18.4976
ltibia 12.516
lfoot -23.3401 6.46625
ltoes -8.38128
195
root -27.9476 16.9513 -0.129922 39.8939 88.6902 33.9099
lowerback 6.82345 2.65128 -0.995216
upperback 1.79272 3.4981 0.251036
thorax -2.04523 1.76159 0.517455
lowerneck -26.9852 -0.217863 0.96639
upperneck 27.1726 0.0611442 -1.76843
head 13.7258 -0.0574802 -0.839079
rclavicle 1.98785e-014 -1.31198e-014
rhumerus -20.2362 16.8108 -92.1758
rradius 34.6902
rwrist -2.86881
rhand -16.2599 -28.2961
rfingers 7.12502
rthumb 9.94943 -58.041
lclavicle 1.98785e-014 -1.31198e-014
lhumerus -37.2162 -20.7589 96.2076
lradius 39.1118
lwrist 9.7289
lhand -23.926 -21.5653
lfingers 7.12502
lthumb 2.54881 8.39922
rfemur 4.85197 -2.93633 12.8052
rtibia 8.31577
rfoot -24.9992 -5.33414
rtoes -8.64597
lfemur 1.11658 -2.53611 -18.4716
ltibia 12.7971
lfoot -23.495 6.39738
ltoes -9.08614
196
root -27.9186 16.942 -0.153007 34.8624 88.7839 28.6456
lowerback 7.12719 2.69308 -0.796097
upperback 1.88037 3.56993 0.334544
thorax -2.11816 1.79776 0.473177
lowerneck -27.0467 -0.271715 0.976554
upperneck 27.0941 -0.0106599 -1.81492
head 13.7037 -0.0960906 -0.87313
rclavicle -1.49089e-014 -7.15625e-015
rhumerus -19.1384 17.5179 -92.0803
rradius 35.8812
rwrist -3.69031
rhand -16.4873 -28.7989
rfingers 7.12502
rthumb 9.72999 -58.5541
lclavicle -1.49089e-014 -7.15625e-015
lhumerus -38.0562 -21.1807 96.4331
lradius 40.4916
lwrist 11.1577
lhand -25.3854 -21.464
lfingers 7.12502
lthumb 1.13937 8.51274
rfemur 4.79337 -2.95563 12.8722
rtibia 8.18372
rfoot -24.9911 -5.07616
rtoes -7.1828
lfemur 0.936536 -2.59603 -18.4241
ltibia 12.9251
lfoot -23.6147 6.61718
ltoes -9.35049
